<svg version="1.1" id="Layer_1" xmlns="http://www.w3.org/2000/svg" x="0" y="0" viewBox="0 0 256 256"
  style="enable-background:new 0 0 256 256" xml:space="preserve">
  <style>
    .st0 {
      fill: #382b73
    }

    .st2 {
      fill: #fff
    }

    .st3 {
      fill: #d0d2d3
    }
  </style>
  <switch>
    <g>
      <circle class="st0" cx="128" cy="128" r="120" />
      <circle cx="128" cy="128" r="102.5" style="fill:#473080" />
      <path class="st0"
        d="M182.784 185.262c12.64-13.749 19.573-31.469 19.573-50.262 0-17.345-5.992-33.968-16.953-47.265a77.606 77.606 0 0 0-2.826-3.233c-6.892-7.445-15.065-13.309-24.29-17.428-9.555-4.267-19.745-6.43-30.288-6.43s-20.733 2.163-30.288 6.43c-9.225 4.119-17.397 9.984-24.29 17.428a77.606 77.606 0 0 0-2.826 3.233C59.635 101.032 53.643 117.655 53.643 135c0 18.792 6.932 36.512 19.572 50.262.071.077.136.159.207.237.286.309.587.598.877.901.375.392.737.793 1.122 1.178.108.108.223.208.332.316.442.437.896.858 1.347 1.283.449.423.896.849 1.354 1.259.466.418.943.82 1.419 1.225.477.407.953.815 1.439 1.208.434.351.877.689 1.319 1.03.565.437 1.131.872 1.707 1.292.353.257.712.504 1.069.754.7.492 1.404.975 2.119 1.44.238.155.48.305.721.457a72.787 72.787 0 0 0 2.614 1.589c.111.064.222.126.334.189a74.1 74.1 0 0 0 3.1 1.676l.014.007a73.639 73.639 0 0 0 6.946 3.096l.134.052c1.1.421 2.21.815 3.329 1.183.16.053.319.107.479.158.984.316 1.976.608 2.974.883.283.078.565.16.848.234a75.03 75.03 0 0 0 2.629.631c.393.088.784.182 1.179.264.783.161 1.572.3 2.361.436.476.083.949.174 1.426.247.743.114 1.493.202 2.241.293.513.063 1.023.137 1.538.189.798.081 1.601.132 2.405.187.461.032.919.078 1.381.101 1.267.064 2.54.098 3.818.098s2.551-.034 3.818-.098c.462-.023.92-.07 1.381-.101.803-.055 1.607-.106 2.405-.187.515-.052 1.025-.126 1.538-.189.749-.091 1.498-.179 2.241-.293.478-.073.951-.164 1.426-.247a74.32 74.32 0 0 0 2.361-.436c.394-.082.786-.176 1.179-.264a75.03 75.03 0 0 0 2.629-.631c.283-.075.565-.156.847-.234a72.094 72.094 0 0 0 2.975-.883c.16-.051.319-.105.478-.158a73.55 73.55 0 0 0 3.331-1.183l.132-.051a73.532 73.532 0 0 0 6.948-3.096l.012-.006a73.641 73.641 0 0 0 3.102-1.676c.111-.063.223-.125.334-.189a73.787 73.787 0 0 0 2.616-1.59c.24-.152.481-.301.719-.456.715-.466 1.42-.949 2.12-1.441.357-.25.716-.498 1.069-.754a72.783 72.783 0 0 0 1.707-1.292c.441-.341.885-.679 1.319-1.03.486-.394.962-.802 1.439-1.208.476-.405.953-.808 1.419-1.225.458-.41.905-.836 1.355-1.259.451-.425.905-.846 1.347-1.283.109-.108.223-.208.331-.316.385-.385.747-.786 1.122-1.178.29-.303.591-.592.877-.901.075-.079.139-.16.21-.238zM77.063 94.46c.86.811 1.742 1.593 2.635 2.359.272.233.551.457.827.687a71.085 71.085 0 0 0 4.817 3.684c.337.237.672.475 1.013.706.737.499 1.486.981 2.242 1.453.202.126.396.264.6.389l.002-.006.011.007c-2.174 8.319-3.468 17.338-3.792 26.634H63.075c.927-13.141 5.778-25.62 13.988-35.913zm94.809 87.161c.257.231.511.467.763.704a65.783 65.783 0 0 1-5.643 4.775l-.122.092a66.415 66.415 0 0 1-2.151 1.531c-.186.127-.37.257-.557.382-.551.37-1.115.723-1.678 1.076-.334.208-.665.422-1.003.624-.213.128-.429.248-.644.373-.136.08-.274.157-.41.236-.495.284-.99.57-1.492.841-.914.493-1.837.969-2.772 1.417l-.036.016c-.846.406-1.704.785-2.566 1.154a62.922 62.922 0 0 0 5.403-8.32c1.87-3.428 3.531-7.132 4.974-11.056a65.024 65.024 0 0 1 7.934 6.155zm-39.244 17.812V168.43a48.281 48.281 0 0 0 4.812-3.117 65.367 65.367 0 0 1 18.268 5.529c-5.229 15.084-13.584 25.896-23.08 28.591zm25.702-37.628a75.483 75.483 0 0 0-3.598-1.497c-.393-.152-.792-.28-1.186-.425-.805-.295-1.61-.594-2.423-.861-.484-.159-.974-.292-1.461-.441-.731-.223-1.46-.452-2.197-.652-.533-.145-1.071-.264-1.606-.396l-.072-.018a48.435 48.435 0 0 0 9.542-17.889h5.989c-.298 7.819-1.339 15.301-2.988 22.179zm-1.305-31.433c.113-1.345.177-2.701.177-4.068v-16.329c0-.423-.139-.822-.371-1.155.485-.205.974-.392 1.456-.607.03-.012.056-.026.086-.038 1.661 6.969 2.66 14.465 2.948 22.196h-4.296zm-14.818-26.578-9.579-2.997V70.579c7.125 2.058 13.927 8.779 19.166 19.152 1.481 2.932 2.798 6.085 3.952 9.408a65.383 65.383 0 0 1-13.539 4.655zm-38.001-14.063c5.239-10.373 12.041-17.094 19.166-19.152v30.218l-9.579 2.997a65.383 65.383 0 0 1-13.539-4.655c1.155-3.323 2.472-6.476 3.952-9.408zm-6.579 18.445c.029.012.056.027.086.038.482.215.971.402 1.456.607a2.019 2.019 0 0 0-.371 1.155v16.329c0 1.367.064 2.723.178 4.068H94.68c.286-7.732 1.286-15.228 2.947-22.197zm3.045 31.452a48.443 48.443 0 0 0 9.546 17.887l-.077.019c-.535.132-1.074.251-1.606.396-.736.199-1.464.429-2.194.651-.487.148-.979.282-1.463.441-.812.266-1.616.565-2.42.86-.396.145-.795.274-1.189.426-1.194.461-2.38.953-3.555 1.478l-.043.019c-1.648-6.878-2.69-14.36-2.988-22.177h5.989zm17.896 25.685a48.3 48.3 0 0 0 4.804 3.112v31.008c-9.497-2.695-17.851-13.507-23.079-28.59a65.295 65.295 0 0 1 18.275-5.53zm41.488-79.754c-1.963-3.887-4.132-7.355-6.482-10.395.743.319 1.481.649 2.212.994.092.043.186.082.277.126.053.025.107.049.16.075.038.018.074.039.112.057.865.418 1.72.856 2.567 1.313.296.159.585.331.878.494.368.206.737.412 1.102.625.186.109.374.213.558.324a64.241 64.241 0 0 1 2.355 1.476c.4.263.79.54 1.185.812a56.923 56.923 0 0 1 3.77 2.804c.272.217.542.438.811.66.217.18.438.354.653.537a64.045 64.045 0 0 1 2.445 2.195 64.964 64.964 0 0 1-8.734 6.889c-1.155-3.148-2.441-6.158-3.869-8.986zm-75.928 2.82a44.956 44.956 0 0 1-.786-.725 63.293 63.293 0 0 1 2.445-2.195c.216-.183.437-.358.655-.539.268-.222.538-.442.809-.659a63.147 63.147 0 0 1 2.317-1.78c.479-.351.965-.688 1.452-1.023.394-.272.785-.549 1.185-.812l.314-.205c.673-.437 1.354-.86 2.042-1.271.183-.11.37-.214.555-.322.367-.215.739-.422 1.11-.63.291-.163.578-.333.872-.491a67.412 67.412 0 0 1 2.568-1.313c.038-.018.074-.039.112-.057l.161-.076c.092-.044.186-.083.278-.126a66.303 66.303 0 0 1 2.211-.994c-2.35 3.04-4.519 6.508-6.482 10.395-1.428 2.828-2.714 5.839-3.868 8.985a64.522 64.522 0 0 1-7.95-6.162zm12.908 98.143a62.887 62.887 0 0 0 5.403 8.32 66.626 66.626 0 0 1-2.559-1.151l-.043-.02a63.924 63.924 0 0 1-2.771-1.417c-.503-.271-.999-.557-1.495-.842-.137-.079-.274-.156-.411-.237-.213-.124-.429-.244-.64-.371-.338-.203-.67-.417-1.005-.626a63.609 63.609 0 0 1-1.676-1.076c-.187-.125-.371-.255-.557-.382a65.264 65.264 0 0 1-2.15-1.53l-.124-.094a65.747 65.747 0 0 1-5.642-4.773 65.014 65.014 0 0 1 8.696-6.859c1.442 3.926 3.103 7.63 4.974 11.058zm81.869-11.011a74.346 74.346 0 0 0-2.605-2.331c-.268-.23-.542-.45-.813-.675a76.057 76.057 0 0 0-1.938-1.563 73.228 73.228 0 0 0-2.887-2.128c-.338-.237-.674-.476-1.015-.708a71.352 71.352 0 0 0-2.134-1.384c-.235-.148-.461-.307-.697-.452l-.002.007-.004-.003c2.171-8.302 3.453-17.314 3.775-26.646h22.335c-.956 13.509-6.044 25.888-14.015 35.883zm14.02-45.139h-22.343c-.324-9.296-1.618-18.315-3.792-26.634l.011-.007.002.006c.203-.124.398-.262.6-.389a74.583 74.583 0 0 0 2.242-1.453c.341-.231.676-.47 1.013-.706a73.255 73.255 0 0 0 2.895-2.135 76.531 76.531 0 0 0 1.922-1.549c.275-.229.554-.453.827-.687a74.191 74.191 0 0 0 2.635-2.359c8.21 10.294 13.061 22.773 13.988 35.913zm-107.509 9.256c.321 9.332 1.604 18.344 3.775 26.646l-.004.003-.002-.007c-.236.145-.463.305-.698.453a76.93 76.93 0 0 0-2.133 1.383c-.342.232-.679.472-1.018.709a77.335 77.335 0 0 0-2.887 2.128 72.107 72.107 0 0 0-1.935 1.561c-.272.226-.547.447-.815.677a75.31 75.31 0 0 0-2.604 2.33c-7.971-9.995-13.059-22.373-14.014-35.883h22.335z" />
      <g>
        <path class="st2"
          d="M185.404 80.735a77.606 77.606 0 0 0-2.826-3.233c-6.892-7.445-15.065-13.309-24.29-17.428-9.555-4.267-19.745-6.43-30.288-6.43s-20.733 2.163-30.287 6.43c-9.225 4.119-17.398 9.984-24.29 17.428a77.606 77.606 0 0 0-2.826 3.233C59.635 94.032 53.643 110.655 53.643 128c0 19.863 7.735 38.534 21.778 52.578s32.716 21.779 52.578 21.779 38.534-7.735 52.578-21.779 21.779-32.716 21.779-52.578c.001-17.345-5.991-33.968-16.952-47.265zM128 193.101c-35.896 0-65.101-29.205-65.101-65.101 0-14.824 4.995-29.044 14.164-40.54a65.092 65.092 0 0 1 6.269-6.815 64.464 64.464 0 0 1 5.896-4.924 58.03 58.03 0 0 1 2.536-1.786 55.538 55.538 0 0 1 1.339-.873c.395-.25.793-.497 1.194-.737.676-.41 1.358-.805 2.049-1.188a66.319 66.319 0 0 1 7.127-3.418 61.23 61.23 0 0 1 3.123-1.179c.265-.096.531-.185.799-.275.259-.089.521-.173.784-.256.265-.086.531-.17.796-.25.256-.08.512-.157.768-.232.04-.012.077-.021.117-.034a62.65 62.65 0 0 1 2.367-.642c.259-.065.518-.13.777-.188.271-.065.543-.13.814-.188.244-.056.487-.108.731-.16l.136-.028c.256-.056.512-.108.771-.157.271-.056.546-.108.821-.157.275-.052.549-.102.827-.148.275-.046.549-.093.827-.136l.052-.009c.453-.071.91-.136 1.367-.198.154-.021.305-.04.46-.062.41-.052.821-.102 1.231-.145.012 0 .022-.003.034-.003.244-.028.491-.052.734-.074.145-.015.29-.028.435-.04.231-.022.463-.043.694-.059.265-.022.531-.04.796-.059.296-.021.592-.037.892-.052.188-.012.376-.019.568-.028l.478-.019a64.485 64.485 0 0 1 4.658 0l.478.019c.191.009.38.015.568.028.299.015.596.031.892.052.265.019.531.037.796.059.231.015.463.037.694.059.145.012.29.025.435.04.244.022.491.046.734.074.012 0 .022.003.034.003.41.043.821.093 1.231.145.154.021.306.04.46.062.457.062.913.127 1.367.198l.053.009a52.809 52.809 0 0 1 1.654.284c.275.049.549.102.821.157.259.049.515.102.771.157l.136.028c.244.053.487.105.731.16.272.059.543.123.814.188a64.79 64.79 0 0 1 3.145.83l.117.034c.256.074.512.151.768.232.265.08.531.163.796.25.262.083.524.167.784.256.269.09.534.179.799.275a61.23 61.23 0 0 1 3.123 1.179 66.319 66.319 0 0 1 6.581 3.116c.182.099.364.201.546.302.691.382 1.373.777 2.049 1.188.401.241.799.487 1.194.737.018.012.034.021.052.034.432.275.861.552 1.286.839a58.901 58.901 0 0 1 2.536 1.786 54.13 54.13 0 0 1 1.203.91A64.464 64.464 0 0 1 178.94 87.46c9.169 11.496 14.164 25.715 14.164 40.54-.003 35.896-29.208 65.101-65.104 65.101z" />
        <path class="st3"
          d="M182.226 84.165a66.12 66.12 0 0 0-2.101-2.477 60.465 60.465 0 0 0-.944-1.043c-6.464-6.982-14.127-12.483-22.778-16.345-8.481-3.786-17.502-5.806-26.826-6.01-.059 0-.117-.003-.176-.003a21.57 21.57 0 0 0-.623-.009 67.088 67.088 0 0 0-.777-.006c-.259 0-.518.003-.777.006-.207 0-.417.003-.623.009-.059 0-.117.003-.176.003-9.324.204-18.345 2.224-26.826 6.01-8.651 3.863-16.315 9.364-22.778 16.345-.321.346-.635.694-.944 1.043a66.12 66.12 0 0 0-2.101 2.477C63.744 96.549 58.271 111.945 58.271 128c0 18.625 7.253 36.134 20.424 49.305s30.679 20.424 49.305 20.424 36.134-7.253 49.305-20.424 20.424-30.679 20.424-49.305c0-16.055-5.473-31.451-15.503-43.835zM128 193.101c-35.896 0-65.101-29.205-65.101-65.101 0-14.824 4.995-29.044 14.164-40.54a61.153 61.153 0 0 1 2.209-2.628 63.919 63.919 0 0 1 6.658-6.501 64.94 64.94 0 0 1 6.3-4.704l.602-.389c.198-.133.398-.259.602-.383.2-.126.404-.25.605-.373.204-.126.404-.25.611-.367a65.298 65.298 0 0 1 8.263-4.165c.219-.09.438-.182.657-.269a37.7 37.7 0 0 1 .808-.321c.136-.055.272-.108.41-.157.426-.167.855-.324 1.286-.481.339-.12.676-.237 1.015-.352.163-.055.327-.111.491-.163.287-.096.574-.188.861-.281.136-.043.272-.086.407-.126.256-.08.512-.157.771-.234.339-.102.685-.197 1.027-.293a62.748 62.748 0 0 1 3.172-.796c.271-.062.546-.12.818-.179a65.073 65.073 0 0 1 5.14-.87c.216-.028.432-.056.651-.08.605-.071 1.21-.136 1.814-.188.231-.022.466-.04.697-.059.012-.003.028-.003.043-.006l.651-.046a64.338 64.338 0 0 1 3.52-.142c.284-.003.565-.006.848-.006s.565.003.848.006a62.708 62.708 0 0 1 4.19.191h.006c.241.018.478.04.716.062a58.666 58.666 0 0 1 2.465.268c1.728.222 3.443.512 5.14.87.271.059.546.117.818.179a62.179 62.179 0 0 1 3.172.796c.342.096.688.191 1.027.293.259.077.515.154.771.234.136.04.271.083.407.126.287.093.574.185.861.281.163.052.327.108.491.163.339.114.676.231 1.015.352.432.157.861.315 1.286.481.139.049.275.102.41.157.271.105.54.21.808.321.219.086.438.179.657.269.429.179.855.361 1.28.552.225.099.45.201.676.305a65.673 65.673 0 0 1 6.306 3.308c.207.117.407.241.611.367.201.123.404.247.605.373.204.123.404.25.602.383l.602.389c.201.13.398.259.592.395a74.885 74.885 0 0 1 1.759 1.224 64.94 64.94 0 0 1 12.816 12.214c9.169 11.496 14.164 25.715 14.164 40.54 0 35.896-29.205 65.101-65.101 65.101z" />
        <path class="st2"
          d="M128 202.357c-11.933 0-22.93-8.109-30.964-22.835-7.55-13.838-11.709-32.136-11.709-51.522 0-18.325 3.771-35.884 10.617-49.441 3.82-7.564 8.405-13.567 13.63-17.842 5.735-4.693 11.935-7.073 18.426-7.073s12.691 2.38 18.426 7.073c5.224 4.276 9.81 10.278 13.63 17.842 6.847 13.557 10.617 31.116 10.617 49.441 0 19.386-4.158 37.684-11.708 51.522-8.035 14.725-19.032 22.835-30.965 22.835zm0-139.458c-8.756 0-17.429 7.229-23.794 19.832-6.205 12.289-9.623 28.365-9.623 45.269 0 35.288 15.303 65.101 33.417 65.101s33.417-29.813 33.417-65.101c0-16.904-3.418-32.98-9.623-45.269-6.365-12.603-15.038-19.832-23.794-19.832z" />
        <path class="st3"
          d="M166.154 128c0-17.185-3.371-33.65-9.493-46.364-3.415-7.093-7.515-12.722-12.186-16.732-5.128-4.402-10.671-6.633-16.475-6.633-5.804 0-11.347 2.232-16.475 6.633-4.671 4.009-8.771 9.639-12.186 16.732-6.122 12.714-9.493 29.179-9.493 46.364 0 18.18 3.718 35.338 10.469 48.316 7.183 13.809 17.016 21.413 27.685 21.413 10.67 0 20.502-7.605 27.685-21.413 6.751-12.978 10.469-30.136 10.469-48.316zM128 193.101c-18.114 0-33.417-29.813-33.417-65.101 0-16.904 3.418-32.98 9.623-45.269 6.365-12.604 15.037-19.832 23.794-19.832s17.429 7.229 23.794 19.832c6.206 12.288 9.623 28.365 9.623 45.269 0 35.288-15.303 65.101-33.417 65.101z" />
        <path class="st2"
          d="M182.577 77.501c-6.892-7.445-15.065-13.309-24.29-17.428-9.555-4.267-19.745-6.43-30.288-6.43s-20.733 2.163-30.287 6.43c-9.225 4.119-17.398 9.984-24.29 17.428a77.606 77.606 0 0 0-2.826 3.233l2.826 3.054a73.757 73.757 0 0 0 3.641 3.671 73.903 73.903 0 0 0 20.649 13.754c9.243 4.128 19.079 6.285 29.254 6.423.346.003.688.006 1.034.006s.688-.003 1.034-.006c10.175-.139 20.011-2.295 29.254-6.423a73.889 73.889 0 0 0 20.649-13.754 74.173 74.173 0 0 0 3.64-3.671l2.826-3.054a77.606 77.606 0 0 0-2.826-3.233zm-10.705 3.878C159.938 92.249 144.234 98.388 128 98.388s-31.938-6.14-43.872-17.009a46.408 46.408 0 0 1-.796-.734 64.464 64.464 0 0 1 5.896-4.924 58.03 58.03 0 0 1 2.536-1.786 55.538 55.538 0 0 1 1.339-.873c.395-.25.793-.497 1.194-.737.676-.41 1.358-.805 2.049-1.188a66.319 66.319 0 0 1 7.127-3.418 61.23 61.23 0 0 1 3.123-1.179c.265-.096.531-.185.799-.275.259-.089.521-.173.784-.256.265-.086.531-.17.796-.25.256-.08.512-.157.768-.232.04-.012.077-.021.117-.034a62.65 62.65 0 0 1 2.367-.642c.259-.065.518-.13.777-.188.271-.065.543-.13.814-.188.244-.056.487-.111.731-.16l.136-.028c.256-.056.512-.108.771-.157.271-.056.546-.108.821-.157.275-.052.549-.102.827-.148.275-.046.549-.093.827-.136l.052-.009c.453-.071.91-.136 1.367-.198.154-.021.305-.04.46-.062.41-.052.821-.102 1.231-.145.012 0 .022-.003.034-.003.244-.028.491-.052.734-.074.145-.015.29-.028.435-.04.231-.022.463-.043.694-.059.265-.022.531-.04.796-.059.296-.021.592-.037.892-.052.188-.012.376-.019.568-.028l.478-.019a64.485 64.485 0 0 1 4.658 0l.478.019c.191.009.38.015.568.028.299.015.596.031.892.052.265.019.531.037.796.059.231.015.463.037.694.059.145.012.29.025.435.04.244.022.491.046.734.074.012 0 .022.003.034.003.41.043.821.093 1.231.145.154.021.306.04.46.062.457.062.913.127 1.367.198l.053.009a52.809 52.809 0 0 1 1.654.284c.275.049.549.102.821.157.259.049.515.102.771.157l.136.028c.244.049.487.105.731.16.272.059.543.123.814.188a64.79 64.79 0 0 1 3.145.83l.117.034c.256.074.512.151.768.232.265.08.531.163.796.25.262.083.524.167.784.256.269.09.534.179.799.275a61.23 61.23 0 0 1 3.123 1.179 66.319 66.319 0 0 1 6.581 3.116c.182.099.364.201.546.302.691.382 1.373.777 2.049 1.188.401.241.799.487 1.194.737.018.012.034.021.052.034.432.275.861.552 1.286.839a58.901 58.901 0 0 1 2.536 1.786 54.13 54.13 0 0 1 1.203.91 64.464 64.464 0 0 1 4.693 4.014c-.266.247-.531.494-.799.734z" />
        <path class="st3"
          d="M80.179 77.856c8.271-8.028 18.317-13.822 29.155-16.938-2.453 2.033-4.76 4.452-6.911 7.238a65.373 65.373 0 0 0-19.091 12.489c.262.247.528.494.796.734-.006.003-.009.006-.016.012a70.833 70.833 0 0 1-3.933-3.535zM144.475 64.904l.213.185A64.786 64.786 0 0 0 128 62.898c-5.674 0-11.283.75-16.688 2.191l.213-.185c4.924-4.227 10.231-6.451 15.781-6.621.231-.006.463-.006.694-.006s.463 0 .694.006c5.55.17 10.857 2.395 15.781 6.621zM175.821 77.856a70.553 70.553 0 0 1-3.934 3.536c-.006-.006-.009-.009-.015-.012.268-.241.534-.488.796-.734a65.386 65.386 0 0 0-19.091-12.489c-2.15-2.786-4.458-5.205-6.911-7.238 10.838 3.115 20.883 8.909 29.155 16.937zM128 107.644zM128 107.644zM79.272 84.832a73.682 73.682 0 0 0 11.045 7.947 97.184 97.184 0 0 0-1.12 3.958 73.997 73.997 0 0 1-12.134-9.277 77.431 77.431 0 0 1-3.289-3.295 66.12 66.12 0 0 1 2.101-2.477 72.931 72.931 0 0 0 3.397 3.144zM162.777 99.027a73.018 73.018 0 0 1-4.4 2.147c-.031.012-.059.028-.089.04-9.555 4.267-19.745 6.43-30.288 6.43s-20.733-2.163-30.287-6.43c-.031-.012-.059-.028-.09-.04a73.92 73.92 0 0 1-4.4-2.147c.336-1.376.7-2.734 1.086-4.066a72.748 72.748 0 0 0 4.399 2.061c9.265 3.98 19.113 5.995 29.291 5.995s20.026-2.015 29.291-5.995a72.748 72.748 0 0 0 4.4-2.061c.009.037.022.071.031.108.148.512.293 1.027.432 1.549a81.055 81.055 0 0 1 .509 1.947c.037.153.078.307.115.462zM182.226 84.165a76.848 76.848 0 0 1-3.289 3.295 73.941 73.941 0 0 1-12.134 9.277 96.73 96.73 0 0 0-1.12-3.958 73.753 73.753 0 0 0 11.045-7.947 72.931 72.931 0 0 0 3.397-3.144 66.12 66.12 0 0 1 2.101 2.477z" />
        <g>
          <path class="st2"
            d="m185.404 175.265-2.826-3.054a74.173 74.173 0 0 0-3.64-3.671 73.903 73.903 0 0 0-20.649-13.754c-9.243-4.128-19.079-6.285-29.254-6.424-.346-.003-.688-.006-1.034-.006s-.688.003-1.034.006c-10.175.139-20.011 2.295-29.254 6.424a73.889 73.889 0 0 0-20.649 13.754 74.633 74.633 0 0 0-3.641 3.671l-2.826 3.054a76.966 76.966 0 0 0 2.826 3.233c6.892 7.445 15.065 13.31 24.29 17.428 9.555 4.267 19.745 6.43 30.287 6.43s20.733-2.163 30.288-6.43c9.225-4.119 17.397-9.984 24.29-17.428a77.792 77.792 0 0 0 2.826-3.233zm-12.736.09a64.253 64.253 0 0 1-5.896 4.924 58.901 58.901 0 0 1-2.536 1.786c-.426.287-.855.565-1.286.839l-.052.034c-.395.25-.793.497-1.194.737-.676.41-1.357.805-2.049 1.188-.182.102-.364.204-.546.302a66.319 66.319 0 0 1-6.581 3.116 61.23 61.23 0 0 1-3.123 1.179c-.265.096-.531.185-.799.275-.259.089-.521.173-.784.256-.265.086-.531.17-.796.25-.256.08-.512.157-.768.231l-.117.034a62.65 62.65 0 0 1-3.959 1.018c-.244.055-.487.111-.731.16l-.136.028c-.256.055-.512.108-.771.157-.271.056-.546.108-.821.157-.275.052-.549.102-.827.148-.275.046-.549.092-.827.136l-.053.009c-.454.071-.91.136-1.367.197-.154.021-.305.04-.46.062-.41.052-.821.102-1.231.145-.012 0-.022.003-.034.003-.244.028-.49.052-.734.074-.145.015-.29.028-.435.04a27.05 27.05 0 0 1-.694.059c-.265.022-.531.04-.796.059-.296.021-.592.037-.892.052-.188.012-.376.019-.568.028l-.478.018a64.527 64.527 0 0 1-4.658 0l-.478-.018c-.191-.009-.379-.015-.568-.028a53.238 53.238 0 0 1-1.688-.111 23.185 23.185 0 0 1-.694-.059c-.145-.012-.29-.025-.435-.04a29.887 29.887 0 0 1-.734-.074c-.012 0-.022-.003-.034-.003-.41-.043-.821-.092-1.231-.145-.154-.022-.305-.04-.46-.062a76.185 76.185 0 0 1-1.367-.197l-.052-.009a52.809 52.809 0 0 1-1.654-.284 36.072 36.072 0 0 1-.821-.157 31.857 31.857 0 0 1-.771-.157l-.136-.028c-.244-.049-.487-.105-.731-.16-.272-.059-.543-.124-.814-.188a64.79 64.79 0 0 1-3.144-.83l-.117-.034a37.315 37.315 0 0 1-.768-.231c-.265-.08-.531-.163-.796-.25a35.851 35.851 0 0 1-.784-.256c-.268-.09-.534-.179-.799-.275a61.23 61.23 0 0 1-3.123-1.179 66.319 66.319 0 0 1-6.581-3.116c-.182-.099-.364-.201-.546-.302a57.344 57.344 0 0 1-2.049-1.188 60.711 60.711 0 0 1-1.194-.737l-.052-.034a59.028 59.028 0 0 1-1.287-.839 58.901 58.901 0 0 1-2.536-1.786 54.13 54.13 0 0 1-1.203-.91 64.464 64.464 0 0 1-4.693-4.014c.262-.247.528-.494.796-.734 11.934-10.869 27.637-17.009 43.872-17.009s31.938 6.14 43.872 17.009c.271.24.536.487.799.734z" />
        </g>
        <g>
          <path class="st3"
            d="M109.285 195.07c-10.82-3.122-20.847-8.91-29.106-16.926a70.553 70.553 0 0 1 3.934-3.536.045.045 0 0 0 .016.012c-.269.241-.534.487-.796.734a65.333 65.333 0 0 0 19.088 12.489c2.156 2.799 4.455 5.212 6.864 7.227zM128 193.101a64.82 64.82 0 0 0 16.725-2.2c-4.918 4.307-10.366 6.652-16.068 6.815-.219.006-.438.006-.657.006s-.438 0-.657-.006c-5.701-.163-11.15-2.508-16.068-6.815a64.82 64.82 0 0 0 16.725 2.2zM175.821 178.144c-8.259 8.015-18.286 13.803-29.106 16.926 2.41-2.015 4.708-4.427 6.865-7.226a65.333 65.333 0 0 0 19.088-12.489 42.417 42.417 0 0 0-.796-.734c.006-.003.009-.006.015-.012a70.494 70.494 0 0 1 3.934 3.535zM128 148.356zM128 148.356z" />
        </g>
        <g>
          <path class="st3"
            d="M89.185 159.269c.352 1.339.725 2.66 1.12 3.958a73.752 73.752 0 0 0-11.033 7.941 72.931 72.931 0 0 0-3.397 3.144 66.12 66.12 0 0 1-2.101-2.477 76.848 76.848 0 0 1 3.289-3.295 74.109 74.109 0 0 1 12.122-9.271zM158.337 154.807a75.368 75.368 0 0 1 4.452 2.172c-.339 1.376-.7 2.73-1.089 4.063a73.114 73.114 0 0 0-4.452-2.083c-9.253-3.967-19.088-5.976-29.248-5.976s-19.995 2.008-29.248 5.976a73.114 73.114 0 0 0-4.452 2.083 99.255 99.255 0 0 1-1.089-4.063 75.368 75.368 0 0 1 4.452-2.172l.049-.021c9.555-4.267 19.745-6.43 30.287-6.43s20.733 2.163 30.288 6.43l.05.021zM182.226 171.835a66.12 66.12 0 0 1-2.101 2.477 72.429 72.429 0 0 0-3.397-3.144 73.68 73.68 0 0 0-11.033-7.941c.395-1.299.768-2.619 1.12-3.958a74.164 74.164 0 0 1 12.122 9.271 76.85 76.85 0 0 1 3.289 3.295z" />
        </g>
        <g>
          <path class="st2" d="M58.271 123.372h139.458v9.256H58.271z" />
        </g>
        <g>
          <path class="st2" d="M123.372 58.271h9.256v139.458h-9.256z" />
        </g>
        <g>
          <path class="st2"
            d="M157.203 102.976v16.329a48.4 48.4 0 0 1-27.741 43.766c-.01.01-.02.02-.03.02-.152.071-.293.142-.445.202a3.118 3.118 0 0 1-.981.162c-.344 0-.668-.061-.971-.162a9.04 9.04 0 0 1-.455-.202c-.01 0-.02-.01-.03-.02-16.895-7.972-27.751-24.999-27.751-43.766v-16.329c0-.88.577-1.669 1.416-1.932l26.578-8.316a4.101 4.101 0 0 1 2.418 0l26.578 8.316a2.03 2.03 0 0 1 1.414 1.932z" />
          <path
            d="M153.49 106.173v14.255a42.248 42.248 0 0 1-24.028 38.121c-.01.01-.02.02-.03.02-.152.071-.293.142-.445.202-.01 0-.02.01-.03.01a3.226 3.226 0 0 1-.951.152c-.344 0-.668-.061-.971-.162-.152-.061-.303-.132-.455-.202-.01 0-.02-.01-.03-.02a42.238 42.238 0 0 1-24.038-38.121v-14.255a1.77 1.77 0 0 1 1.234-1.689l23.198-7.254a3.596 3.596 0 0 1 2.115 0l23.198 7.254a1.77 1.77 0 0 1 1.233 1.689z"
            style="fill:#d1d3d4" />
          <path
            d="M148.808 108.862v12.95a34.457 34.457 0 0 1-19.344 30.977 6.228 6.228 0 0 1-.478.222c-.01 0-.02.01-.03.01a2.98 2.98 0 0 1-1.922-.01 6.848 6.848 0 0 1-.281-.123l-.094-.044c-.03-.015-.049-.025-.079-.035-.01 0-.02-.01-.03-.02a28.127 28.127 0 0 1-.917-.468 34.455 34.455 0 0 1-18.427-30.509v-12.95c0-.444.281-.838.705-.971l19.487-6.088a2.007 2.007 0 0 1 1.203 0l19.487 6.088c.424.133.72.527.72.971z"
            style="fill:#009add" />
          <path
            d="m127.821 125.73-.102-.004.102.004zm-.287-.015-.129-.011.129.011zm-.137-.012-.135-.015.135.015zm-.179-.022zm-.143-.02-.081-.013.081.013zm-.136-.023-.088-.017.088.017zm-.149-.029a4.013 4.013 0 0 1-.106-.023l.106.023zm-.164-.037-.068-.017.068.017zm-.132-.033-.067-.018.067.018zm-.127-.035-.072-.021.072.021zm1.209.214.098.006-.098-.006zm.283.013.141.002.141-.002-.141.002-.122-.001-.019-.001zm1.649-.193.061-.016-.061.016zm-.132.033.066-.016-.066.016zm-.157.036.096-.021-.096.021zm-.12.024-.038.007.086-.016c-.017.002-.032.006-.048.009zm-.158.027a2.34 2.34 0 0 0 0 0zm-.156.023.086-.012-.086.012zm-.167.02-.015.002.134-.015-.119.013zm-.152.014zm-.14.009.098-.006-.098.006zm-.148.006zm1.691 2.243v.309-.309zm-.234-2.47.064-.019-.064.019z"
            style="fill:#e43d91" />
          <g>
            <path
              d="M125.598 136.286a3.53 3.53 0 0 1-2.497-1.035l-6.904-6.903a3.53 3.53 0 1 1 4.993-4.993l4.407 4.405 8.929-8.93a3.53 3.53 0 1 1 4.993 4.993l-11.426 11.428a3.52 3.52 0 0 1-2.495 1.035z"
              style="fill:#136da0" />
            <path
              d="M125.598 133.791a3.53 3.53 0 0 1-2.497-1.035l-6.904-6.903a3.53 3.53 0 1 1 4.993-4.993l4.407 4.405 8.929-8.93a3.53 3.53 0 1 1 4.993 4.993l-11.426 11.428a3.524 3.524 0 0 1-2.495 1.035z"
              style="fill:#fede3a" />
            <path
              d="m139.52 116.569-11.426 11.428a3.53 3.53 0 0 1-4.994 0l-6.904-6.903c-.036-.037-.061-.08-.096-.117a3.522 3.522 0 0 0 .096 4.876l6.904 6.903a3.533 3.533 0 0 0 4.994 0l11.426-11.428a3.523 3.523 0 0 0 .096-4.876c-.035.038-.059.081-.096.117z"
              style="fill:#f7cb15" />
          </g>
        </g>
      </g>
    </g>
  </switch>
</svg>